<svg width="100" height="100" viewBox="0 0 100 100" xmlns="http://www.w3.org/2000/svg">
    <g>
        <!-- Outer explosion -->
        <circle cx="50" cy="50" r="35" fill="#ff6b35" opacity="0.7"/>
        <circle cx="50" cy="50" r="28" fill="#ff8c42" opacity="0.8"/>
        <circle cx="50" cy="50" r="20" fill="#ffa552" opacity="0.9"/>
        <circle cx="50" cy="50" r="12" fill="#ffcc29" opacity="1"/>
        <!-- Flames -->
        <path d="M50,20 Q45,30 50,40 Q55,30 50,20" fill="#ff4500" opacity="0.8"/>
        <path d="M65,35 Q60,42 65,50 Q70,42 65,35" fill="#ff6347" opacity="0.8"/>
        <path d="M35,35 Q30,42 35,50 Q40,42 35,35" fill="#ff6347" opacity="0.8"/>
        <path d="M70,50 Q67,55 70,62 Q73,55 70,50" fill="#ff7f50" opacity="0.7"/>
        <path d="M30,50 Q27,55 30,62 Q33,55 30,50" fill="#ff7f50" opacity="0.7"/>
        <!-- Smoke particles -->
        <circle cx="45" cy="15" r="6" fill="#555" opacity="0.6"/>
        <circle cx="55" cy="12" r="5" fill="#666" opacity="0.5"/>
        <circle cx="50" cy="8" r="4" fill="#777" opacity="0.4"/>
    </g>
</svg>