<svg width="100" height="400" viewBox="0 0 100 400" xmlns="http://www.w3.org/2000/svg">
    <defs>
        <linearGradient id="hull4v" x1="0%" y1="0%" x2="100%" y2="0%">
            <stop offset="0%" style="stop-color:#7395ae;stop-opacity:1" />
            <stop offset="100%" style="stop-color:#5a7d9a;stop-opacity:1" />
        </linearGradient>
    </defs>
    <rect x="5" y="5" width="90" height="390" rx="20" fill="url(#hull4v)" stroke="#2c3e50" stroke-width="4"/>
    <rect x="15" y="15" width="70" height="370" rx="17" fill="#8b9dc3" stroke="#2c3e50" stroke-width="3"/>
    <rect x="25" y="40" width="60" height="50" rx="6" fill="#607d8b" stroke="#2c3e50" stroke-width="2"/>
    <rect x="20" y="45" width="25" height="40" rx="4" fill="#78909c" stroke="#2c3e50" stroke-width="2"/>
    <rect x="25" y="135" width="55" height="50" rx="6" fill="#607d8b" stroke="#2c3e50" stroke-width="2"/>
    <rect x="20" y="140" width="23" height="40" rx="4" fill="#78909c" stroke="#2c3e50" stroke-width="2"/>
    <rect x="25" y="225" width="55" height="50" rx="6" fill="#607d8b" stroke="#2c3e50" stroke-width="2"/>
    <rect x="20" y="230" width="23" height="40" rx="4" fill="#78909c" stroke="#2c3e50" stroke-width="2"/>
    <rect x="25" y="310" width="60" height="50" rx="6" fill="#607d8b" stroke="#2c3e50" stroke-width="2"/>
    <rect x="20" y="315" width="25" height="40" rx="4" fill="#78909c" stroke="#2c3e50" stroke-width="2"/>
    <ellipse cx="50" cy="115" rx="12" ry="14" fill="#546e7a" stroke="#2c3e50" stroke-width="2"/>
    <ellipse cx="50" cy="205" rx="12" ry="14" fill="#546e7a" stroke="#2c3e50" stroke-width="2"/>
    <circle cx="50" cy="295" r="10" fill="#546e7a" stroke="#2c3e50" stroke-width="2"/>
</svg>